<svg width="43" height="42" viewBox="0 0 43 42" fill="none" xmlns="http://www.w3.org/2000/svg">
<circle cx="21.4783" cy="21" r="20.625" fill="#5E3BEE" stroke="white" stroke-width="0.75"/>
<g clip-path="url(#clip0_1968_1633)">
<rect width="18" height="18" transform="translate(12.4783 12)" fill="#5E3BEE"/>
<path d="M16.2133 14.625C16.2133 15.6607 15.3808 16.5 14.3533 16.5C13.3258 16.5 12.4933 15.6607 12.4933 14.625C12.4933 13.59 13.3258 12.75 14.3533 12.75C15.3808 12.75 16.2133 13.59 16.2133 14.625ZM16.2283 18H12.4783V30H16.2283V18ZM22.2148 18H18.4888V30H22.2155V23.7008C22.2155 20.1982 26.7373 19.9117 26.7373 23.7008V30H30.4783V22.4018C30.4783 16.4918 23.7868 16.707 22.2148 19.6163V18Z" fill="white"/>
</g>
<defs>
<clipPath id="clip0_1968_1633">
<rect width="18" height="18" fill="white" transform="translate(12.4783 12)"/>
</clipPath>
</defs>
</svg>
