<svg width="43" height="42" viewBox="0 0 43 42" fill="none" xmlns="http://www.w3.org/2000/svg">
<circle cx="21.4783" cy="21" r="20.625" fill="#5E3BEE" stroke="white" stroke-width="0.75"/>
<path d="M28.9783 16.4206C28.4264 16.6618 27.8333 16.8242 27.2108 16.8975C27.8464 16.5228 28.3345 15.929 28.5639 15.2215C27.9695 15.5685 27.3108 15.8208 26.6095 15.9567C26.0489 15.3679 25.2483 15 24.3633 15C22.3764 15 20.9164 16.8249 21.3651 18.7192C18.8083 18.5931 16.5408 17.3872 15.0226 15.5543C14.2164 16.9159 14.6045 18.6971 15.9745 19.5991C15.4708 19.5831 14.9958 19.4471 14.5814 19.2201C14.5476 20.6235 15.5695 21.9364 17.0495 22.2287C16.6164 22.3443 16.142 22.3714 15.6595 22.2804C16.0508 23.4838 17.187 24.3593 18.5345 24.3839C17.2408 25.3825 15.6108 25.8285 13.9783 25.639C15.3401 26.4986 16.9583 27 18.6958 27C24.4095 27 27.6376 22.2496 27.4426 17.9889C28.0439 17.5613 28.5658 17.0279 28.9783 16.4206V16.4206Z" fill="white"/>
</svg>
