<svg width="24" height="24" viewBox="0 0 24 24" fill="none" xmlns="http://www.w3.org/2000/svg">
<path d="M8.8 16.8L10.6667 14.9L7.76667 12L10.6667 9.1L8.8 7.2L4 12L8.8 16.8ZM15.2 16.8L20 12L15.2 7.2L13.3333 9.1L16.2333 12L13.3333 14.9L15.2 16.8ZM2.66667 24C1.93334 24 1.30534 23.7387 0.782669 23.216C0.260002 22.6933 -0.000886625 22.0658 2.26373e-06 21.3333V2.66667C2.26373e-06 1.93334 0.261336 1.30534 0.784002 0.782669C1.30667 0.260002 1.93422 -0.000886625 2.66667 2.26373e-06H21.3333C22.0667 2.26373e-06 22.6947 0.261336 23.2173 0.784002C23.74 1.30667 24.0009 1.93422 24 2.66667V21.3333C24 22.0667 23.7387 22.6947 23.216 23.2173C22.6933 23.74 22.0658 24.0009 21.3333 24H2.66667Z" fill="#5E3BEE"/>
</svg>
