<svg width="80" height="80" viewBox="0 0 80 80" fill="none" xmlns="http://www.w3.org/2000/svg">
<circle cx="40" cy="39.8159" r="39.75" fill="#5E3BEE"/>
<path d="M49.6499 30.1125C48.4275 28.8777 46.9715 27.8987 45.3668 27.2326C43.7621 26.5664 42.0408 26.2264 40.3033 26.2325C33.0233 26.2325 27.0899 32.1658 27.0899 39.4458C27.0899 41.7792 27.7033 44.0458 28.8499 46.0458L26.9833 52.8992L33.9833 51.0592C35.9166 52.1125 38.0899 52.6725 40.3033 52.6725C47.5833 52.6725 53.5166 46.7392 53.5166 39.4592C53.5166 35.9258 52.1433 32.6058 49.6499 30.1125ZM40.3033 50.4325C38.3299 50.4325 36.3966 49.8992 34.7033 48.8992L34.3033 48.6592L30.1433 49.7525L31.2499 45.6992L30.9833 45.2858C29.8869 43.5351 29.3048 41.5115 29.3033 39.4458C29.3033 33.3925 34.2366 28.4592 40.2899 28.4592C43.2233 28.4592 45.9833 29.6058 48.0499 31.6858C49.0733 32.7045 49.8842 33.9161 50.4358 35.2504C50.9874 36.5848 51.2687 38.0153 51.2633 39.4592C51.2899 45.5125 46.3566 50.4325 40.3033 50.4325ZM46.3299 42.2192C45.9966 42.0592 44.3699 41.2592 44.0766 41.1392C43.7699 41.0325 43.5566 40.9792 43.3299 41.2992C43.1033 41.6325 42.4766 42.3792 42.2899 42.5925C42.1033 42.8192 41.9033 42.8458 41.5699 42.6725C41.2366 42.5125 40.1699 42.1525 38.9166 41.0325C37.9299 40.1525 37.2766 39.0725 37.0766 38.7392C36.8899 38.4058 37.0499 38.2325 37.2233 38.0592C37.3699 37.9125 37.5566 37.6725 37.7166 37.4858C37.8766 37.2992 37.9433 37.1525 38.0499 36.9392C38.1566 36.7125 38.1033 36.5258 38.0233 36.3658C37.9433 36.2058 37.2766 34.5792 37.0099 33.9125C36.7433 33.2725 36.4633 33.3525 36.2633 33.3392H35.6233C35.3966 33.3392 35.0499 33.4192 34.7433 33.7525C34.4499 34.0858 33.5966 34.8858 33.5966 36.5125C33.5966 38.1392 34.7833 39.7125 34.9433 39.9258C35.1033 40.1525 37.2766 43.4858 40.5833 44.9125C41.3699 45.2592 41.9833 45.4592 42.4633 45.6058C43.2499 45.8592 43.9699 45.8192 44.5433 45.7392C45.1833 45.6458 46.5033 44.9392 46.7699 44.1658C47.0499 43.3925 47.0499 42.7392 46.9566 42.5925C46.8633 42.4458 46.6633 42.3792 46.3299 42.2192Z" fill="white"/>
</svg>
