<svg width="20" height="21" viewBox="0 0 20 21" fill="none" xmlns="http://www.w3.org/2000/svg">
<path fill-rule="evenodd" clip-rule="evenodd" d="M9.99996 0.277771C4.48608 0.277771 0 4.7627 0 10.2778C0 15.7917 4.48608 20.2772 9.99996 20.2772C15.5138 20.2772 20 15.7917 20 10.2778C20 4.7627 15.5138 0.277771 9.99996 0.277771ZM15.575 6.9428L9.42112 13.8659C9.2696 14.0358 9.05846 14.1234 8.84571 14.1234C8.67691 14.1234 8.50731 14.0681 8.3654 13.9557L4.51916 10.8783C4.18761 10.6132 4.13384 10.1288 4.39921 9.79657C4.66426 9.4654 5.1488 9.41109 5.48035 9.67667L8.7561 12.2971L14.4249 5.92022C14.7066 5.60195 15.1934 5.57345 15.5107 5.85626C15.8284 6.13852 15.8573 6.62453 15.575 6.9428Z" fill="#5E3BEE"/>
</svg>
