<?xml version="1.0" standalone="no"?>
<!DOCTYPE svg PUBLIC "-//W3C//DTD SVG 20010904//EN"
 "http://www.w3.org/TR/2001/REC-SVG-20010904/DTD/svg10.dtd">
<svg version="1.0" xmlns="http://www.w3.org/2000/svg"
 width="268.000000pt" height="268.000000pt" viewBox="0 0 268.000000 268.000000"
 preserveAspectRatio="xMidYMid meet">
<metadata>
Created by potrace 1.14, written by Peter Selinger 2001-2017
</metadata>
<g transform="translate(0.000000,268.000000) scale(0.100000,-0.100000)"
fill="#000000" stroke="none">
<path d="M220 2671 c-84 -26 -148 -81 -192 -164 l-23 -42 0 -1125 0 -1125 23
-42 c33 -63 74 -106 134 -139 l53 -29 1110 -2 c1026 -2 1114 -1 1157 15 65 23
133 83 166 145 l27 52 0 1125 0 1125 -23 42 c-33 63 -74 106 -134 139 l-53 29
-1110 2 c-611 1 -1121 -2 -1135 -6z m864 -898 c52 -54 95 -102 96 -107 2 -4
-69 -80 -156 -168 l-158 -159 162 -162 162 -162 -101 -102 c-56 -57 -104 -103
-108 -103 -3 0 -125 119 -271 265 l-265 265 265 265 c146 146 268 265 272 265
4 0 50 -44 102 -97z m886 -168 l265 -265 -265 -265 c-146 -146 -268 -265 -272
-265 -7 0 -199 194 -201 204 -1 3 70 78 158 166 l159 161 -162 162 -161 162
100 103 c56 56 104 102 108 102 3 0 125 -119 271 -265z"/>
</g>
</svg>
