<svg width="69" height="69" viewBox="0 0 69 69" fill="none" xmlns="http://www.w3.org/2000/svg">
<path fill-rule="evenodd" clip-rule="evenodd" d="M34.5 69C53.5538 69 69 53.5538 69 34.5C69 15.4462 53.5538 0 34.5 0C15.4462 0 0 15.4462 0 34.5C0 53.5538 15.4462 69 34.5 69Z" fill="#EDEDED"/>
<path d="M33.6666 30V26H29.6666V23.3333H33.6666V19.3333H36.3333V23.3333H40.3333V26H36.3333V30H33.6666ZM28.3333 47.3333C27.6 47.3333 26.972 47.072 26.4493 46.5493C25.9266 46.0267 25.6658 45.3991 25.6666 44.6667C25.6666 43.9333 25.928 43.3053 26.4506 42.7827C26.9733 42.26 27.6009 41.9991 28.3333 42C29.0666 42 29.6946 42.2613 30.2173 42.784C30.74 43.3067 31.0009 43.9342 31 44.6667C31 45.4 30.7386 46.028 30.216 46.5507C29.6933 47.0733 29.0658 47.3342 28.3333 47.3333ZM41.6666 47.3333C40.9333 47.3333 40.3053 47.072 39.7826 46.5493C39.26 46.0267 38.9991 45.3991 39 44.6667C39 43.9333 39.2613 43.3053 39.784 42.7827C40.3066 42.26 40.9342 41.9991 41.6666 42C42.4 42 43.028 42.2613 43.5506 42.784C44.0733 43.3067 44.3342 43.9342 44.3333 44.6667C44.3333 45.4 44.072 46.028 43.5493 46.5507C43.0266 47.0733 42.3991 47.3342 41.6666 47.3333ZM28.3333 40.6667C27.3333 40.6667 26.5666 40.2276 26.0333 39.3493C25.5 38.4711 25.4889 37.5991 26 36.7333L27.8 33.4667L23 23.3333H20.3333V20.6667H24.7L30.3666 32.6667H39.7333L44.9 23.3333L47.2333 24.6L42.0666 33.9333C41.8222 34.3778 41.5 34.7222 41.1 34.9667C40.7 35.2111 40.2444 35.3333 39.7333 35.3333H29.8L28.3333 38H44.3333V40.6667H28.3333Z" fill="#FF3126"/>
</svg>
