<svg width="69" height="69" viewBox="0 0 69 69" fill="none" xmlns="http://www.w3.org/2000/svg">
<path fill-rule="evenodd" clip-rule="evenodd" d="M34.5 69C53.5538 69 69 53.5538 69 34.5C69 15.4462 53.5538 0 34.5 0C15.4462 0 0 15.4462 0 34.5C0 53.5538 15.4462 69 34.5 69Z" fill="#EDEDED"/>
<path d="M35 44.6667H23.6667C23.1362 44.6667 22.6275 44.456 22.2524 44.0809C21.8774 43.7058 21.6667 43.1971 21.6667 42.6667V25.3333C21.6667 24.8029 21.8774 24.2942 22.2524 23.9191C22.6275 23.5441 23.1362 23.3333 23.6667 23.3333H46.3333C46.8638 23.3333 47.3725 23.5441 47.7475 23.9191C48.1226 24.2942 48.3333 24.8029 48.3333 25.3333V33.3727" stroke="#FA03FF" stroke-width="2" stroke-linecap="round" stroke-linejoin="round"/>
<path d="M21.6667 25.3333C21.6667 24.8029 21.8774 24.2942 22.2524 23.9191C22.6275 23.5441 23.1362 23.3333 23.6667 23.3333H46.3333C46.8638 23.3333 47.3725 23.5441 47.7475 23.9191C48.1226 24.2942 48.3333 24.8029 48.3333 25.3333V31.3333H21.6667V25.3333Z" stroke="#FA03FF" stroke-width="2"/>
<path d="M24.3333 27.3334C24.3333 26.597 24.9303 26 25.6667 26C26.403 26 27 26.597 27 27.3334C27 28.0697 26.403 28.6667 25.6667 28.6667C24.9303 28.6667 24.3333 28.0697 24.3333 27.3334Z" fill="#FA03FF"/>
<path d="M28.3333 27.3334C28.3333 26.597 28.9303 26 29.6667 26C30.403 26 31 26.597 31 27.3334C31 28.0697 30.403 28.6667 29.6667 28.6667C28.9303 28.6667 28.3333 28.0697 28.3333 27.3334Z" fill="#FA03FF"/>
<path d="M43.6667 42.6667C44.7712 42.6667 45.6667 41.7713 45.6667 40.6667C45.6667 39.5621 44.7712 38.6667 43.6667 38.6667C42.5621 38.6667 41.6667 39.5621 41.6667 40.6667C41.6667 41.7713 42.5621 42.6667 43.6667 42.6667Z" stroke="#FA03FF" stroke-width="2"/>
<path d="M43.6667 45.3333V42.6667M43.6667 38.6667V36M39.6253 43L41.9347 41.6667M45.3987 39.6667L47.708 38.3333M39.6253 38.3333L41.9347 39.6667M45.3987 41.6667L47.708 43" stroke="#FA03FF" stroke-width="2" stroke-linecap="round" stroke-linejoin="round"/>
</svg>
